<?xml version="1.0" standalone="no"?>
<!DOCTYPE svg PUBLIC "-//W3C//DTD SVG 20010904//EN"
 "http://www.w3.org/TR/2001/REC-SVG-20010904/DTD/svg10.dtd">
<svg version="1.0" xmlns="http://www.w3.org/2000/svg"
 width="353.000000pt" height="353.000000pt" viewBox="0 0 353.000000 353.000000"
 preserveAspectRatio="xMidYMid meet">
<metadata>
Created by potrace 1.14, written by Peter Selinger 2001-2017
</metadata>
<g transform="translate(0.000000,353.000000) scale(0.100000,-0.100000)"
fill="#000000" stroke="none">
<path d="M1490 3515 c-105 -21 -183 -42 -215 -59 -17 -9 -35 -16 -41 -16 -58
0 -413 -164 -454 -208 -8 -10 -34 -30 -58 -46 -41 -28 -96 -77 -207 -185 -45
-43 -63 -65 -119 -136 -9 -11 -38 -48 -65 -82 -52 -66 -145 -225 -181 -309
-12 -27 -28 -62 -35 -79 -28 -59 -65 -173 -66 -201 -1 -16 -8 -65 -16 -108 -8
-43 -17 -97 -19 -120 -5 -48 -5 -317 1 -361 7 -59 16 -121 25 -168 6 -26 10
-70 10 -97 0 -27 5 -52 10 -55 6 -3 10 -17 10 -30 0 -13 14 -53 30 -90 17 -37
30 -73 30 -81 0 -8 4 -14 8 -14 5 0 23 -33 40 -72 91 -206 346 -516 515 -626
23 -15 44 -30 47 -33 24 -31 232 -150 372 -213 38 -17 113 -36 158 -39 14 -1
30 -5 35 -9 17 -10 175 -46 235 -53 30 -3 73 -8 95 -10 68 -8 310 -4 310 5 0
1 20 3 45 5 114 9 312 66 472 136 89 39 228 118 228 130 0 5 6 9 13 9 18 1
107 58 169 110 66 55 268 259 268 271 0 4 12 23 28 41 30 37 29 34 109 172 73
127 161 345 188 466 1 8 7 33 13 55 9 36 17 100 26 212 2 22 7 46 10 52 4 6 1
14 -7 17 -11 4 -15 26 -15 92 -1 140 -24 311 -57 425 -8 26 -10 45 -5 42 13
-8 1 26 -16 46 -8 8 -17 30 -20 47 -4 18 -11 35 -15 38 -5 3 -9 12 -9 20 0 9
-24 64 -54 122 -29 59 -51 114 -48 122 3 8 1 12 -3 8 -10 -9 -34 21 -34 42 -1
10 6 7 20 -10 11 -14 17 -18 13 -10 -13 26 -36 50 -45 45 -4 -3 -16 6 -26 21
-10 14 -40 52 -66 85 -26 32 -46 59 -44 59 2 0 -39 43 -90 95 -87 88 -96 100
-68 96 12 -2 -31 34 -60 51 -19 10 -19 10 -5 -8 10 -12 5 -10 -16 6 -17 14
-52 37 -78 52 -25 15 -46 33 -45 40 0 10 2 10 6 0 2 -6 10 -9 15 -6 6 4 8 3 5
-3 -3 -5 0 -10 8 -10 8 0 12 3 10 7 -4 7 -159 104 -200 126 -23 12 -48 7 -40
-7 4 -5 -1 -6 -10 -3 -14 6 -14 8 2 21 17 14 17 14 1 9 -10 -3 -18 -1 -18 5 0
6 -5 7 -11 3 -6 -3 -15 -1 -19 5 -4 7 -13 14 -21 15 -8 2 -39 15 -70 29 -64
31 -212 70 -325 87 -44 6 -90 14 -104 17 -58 12 -397 10 -460 -2z m613 -42
c-7 -2 -19 -2 -25 0 -7 3 -2 5 12 5 14 0 19 -2 13 -5z m-714 -7 c-2 -2 -17 -6
-34 -10 -22 -5 -26 -4 -15 4 14 9 59 15 49 6z m794 -13 c-7 -2 -19 -2 -25 0
-7 3 -2 5 12 5 14 0 19 -2 13 -5z m117 -23 c25 -10 38 -19 30 -19 -8 0 -35 9
-60 19 -25 10 -38 19 -30 19 8 0 35 -9 60 -19z m-1251 -74 c-10 -9 -69 -36
-69 -32 0 7 52 35 64 36 5 0 7 -2 5 -4z m1541 -56 c8 -5 11 -10 5 -10 -5 0
-21 10 -35 21 -24 20 -5 13 30 -11z m110 -60 c8 -5 12 -11 9 -14 -3 -3 -14 1
-25 9 -21 16 -8 20 16 5z"/>
<path d="M2980 3023 c0 -15 41 -55 49 -48 3 3 -7 18 -22 33 -15 14 -27 21 -27
15z"/>
<path d="M3057 2952 c-4 -8 24 -36 41 -39 17 -4 15 1 -13 25 -13 12 -26 18
-28 14z"/>
<path d="M3097 2893 c-8 -7 11 -33 24 -33 5 0 9 5 9 10 0 6 -6 9 -12 8 -7 -2
-12 3 -10 10 2 13 -1 15 -11 5z"/>
<path d="M3190 2766 c0 -2 8 -10 18 -17 15 -13 16 -12 3 4 -13 16 -21 21 -21
13z"/>
<path d="M3350 2499 c7 -11 14 -18 17 -15 8 8 -5 36 -17 36 -7 0 -7 -6 0 -21z"/>
<path d="M3370 2455 c0 -5 5 -17 10 -25 5 -8 10 -10 10 -5 0 6 -5 17 -10 25
-5 8 -10 11 -10 5z"/>
<path d="M3461 2154 c0 -11 3 -14 6 -6 3 7 2 16 -1 19 -3 4 -6 -2 -5 -13z"/>
</g>
</svg>
